<?xml version="1.0" encoding="UTF-8" standalone="no" ?>
<!DOCTYPE svg PUBLIC "-//W3C//DTD SVG 1.1//EN" "http://www.w3.org/Graphics/SVG/1.1/DTD/svg11.dtd">
<svg xmlns="http://www.w3.org/2000/svg" xmlns:xlink="http://www.w3.org/1999/xlink" version="1.1" width="210" height="210" viewBox="0 0 210 210" xml:space="preserve">
<desc>Created with Fabric.js 1.7.22</desc>
<defs>
</defs>
<g id="icon" style="stroke: none; stroke-width: 1; stroke-dasharray: none; stroke-linecap: butt; stroke-linejoin: miter; stroke-miterlimit: 10; fill: none; fill-rule: nonzero; opacity: 1;" transform="translate(-1.1666666666666714 -1.1666666666666714) scale(2.33 2.33)" >
	<path d="M 89 44.006 h -5.046 c -0.403 -16.181 -10.533 -30.03 -25.229 -35.492 h 17.307 c 0.488 3.399 3.412 6.022 6.945 6.022 c 3.873 0 7.023 -3.15 7.023 -7.022 s -3.15 -7.022 -7.023 -7.022 c -3.533 0 -6.457 2.624 -6.945 6.022 H 52.023 V 1.018 c 0 -0.552 -0.447 -1 -1 -1 H 38.976 c -0.552 0 -1 0.448 -1 1 v 5.497 H 13.968 c -0.488 -3.399 -3.412 -6.022 -6.944 -6.022 C 3.151 0.492 0 3.643 0 7.515 s 3.151 7.022 7.024 7.022 c 3.533 0 6.456 -2.624 6.944 -6.022 h 17.307 C 16.579 13.977 6.449 27.825 6.046 44.006 H 1 c -0.552 0 -1 0.448 -1 1 v 12.044 c 0 0.553 0.448 1 1 1 h 12.048 c 0.552 0 1 -0.447 1 -1 V 45.006 c 0 -0.552 -0.448 -1 -1 -1 H 8.046 c 0.458 -17.444 12.832 -32.022 29.93 -35.293 v 4.349 c 0 0.552 0.448 1 1 1 h 12.047 c 0.553 0 1 -0.448 1 -1 V 8.713 c 17.099 3.271 29.473 17.849 29.931 35.294 h -5.002 c -0.553 0 -1 0.448 -1 1 v 12.044 c 0 0.553 0.447 1 1 1 H 89 c 0.553 0 1 -0.447 1 -1 V 45.006 C 90 44.454 89.553 44.006 89 44.006 z" style="stroke: none; stroke-width: 1; stroke-dasharray: none; stroke-linecap: butt; stroke-linejoin: miter; stroke-miterlimit: 10; fill: rgb(255,255,255); fill-rule: nonzero; opacity: 1;" transform=" matrix(1 0 0 1 0 0) " stroke-linecap="round" />
	<path d="M 65.342 59.952 L 46.5 22.764 v 28.205 h -3 V 22.762 l -18.842 37.19 c -0.164 0.324 -0.14 0.712 0.064 1.013 l 9.553 14.111 v 13.941 c 0 0.553 0.448 1 1 1 h 19.45 c 0.553 0 1 -0.447 1 -1 V 75.076 l 9.554 -14.111 C 65.482 60.664 65.507 60.276 65.342 59.952 z" style="stroke: none; stroke-width: 1; stroke-dasharray: none; stroke-linecap: butt; stroke-linejoin: miter; stroke-miterlimit: 10; fill: rgb(255,255,255); fill-rule: nonzero; opacity: 1;" transform=" matrix(1 0 0 1 0 0) " stroke-linecap="round" />
</g>
</svg>